# xmcd
#
# Track frame offsets:
#	150
#	12211
#	25285
#	40155
#	53727
#	67349
#	81116
#	92489
#	103062
#	115212
#	128180
#	140919
#	167599
#	179263
#	191976
#
# Disc length: 2732 seconds
#
# Revision: 0
# Processed by: cddbd v1.5.2PL0 Copyright (c) Steve Scherf et al.
# Submitted via: FairStars CD Ripper 1.90
#
DISCID=d30aaa0f
DTITLE=Various Artist - Music As Featured In The Last Picture Show [CD2]
DYEAR=2017
DGENRE=Country
TTITLE0=Hank Williams - Half As Much
TTITLE1=Eddie Fisher - Wish You Were Here
TTITLE2=Tony Bennet - Solitaire
TTITLE3=Kay Starr - Wheel Of Fortune
TTITLE4=Tony Bennet - Blue Velvet
TTITLE5=Jo Stafford - You Belong To Me
TTITLE6=Hank Williams - My Son Calls Another Man Daddy
TTITLE7=Hank Williams - I Can't Help It (I'm Still In Love With You)
TTITLE8=Webb Pierce - Back Street Affair
TTITLE9=Bob Willis and His Texas Playboys - Faded Love
TTITLE10=Hank Williams - Jambalaya (On The Bayou)
TTITLE11=Johnny Standley - It's In The Book
TTITLE12=Eddy Arnold - Don't Rob Another Man's Castle
TTITLE13=Jo Stafford - Shrimp Boats
TTITLE14=Eddy Arnold - Anytime
EXTD=
EXTT0=
EXTT1=
EXTT2=
EXTT3=
EXTT4=
EXTT5=
EXTT6=
EXTT7=
EXTT8=
EXTT9=
EXTT10=
EXTT11=
EXTT12=
EXTT13=
EXTT14=
PLAYORDER=
